# xmcd
#
# Track frame offsets: 
#        150
#        7838
#        8358
#        8738
#        23808
#        24349
#        32786
#        38203
#        44887
#        47202
#        47668
#        50544
#        52616
#        53307
#        59616
#        69961
#        95223
#        98017
#        116080
#        125633
#        143234
#        153317
#        161951
#        192296
#        194639
#        200956
#        202395
#        216665
#        217094
#        222504
#        227595
#        229501
#        235816
#        268948
#        270669
#        289985
#        292921
#        309186
#        311720
#        312123
#        316217
#        336887
#        338572
#
# Disc length: 4799 seconds
#
# Revision: 0
# Processed by: cddbd v1.5.2PL0 Copyright (c) Steve Scherf et al.
# Submitted via: ExactAudioCopy v0.95b4
#
DISCID=8612bd2b
DTITLE=The Beatles  - AB  Road - Complete Purple Chick Set v1.1 Jan.02
DTITLE=Various Artist - D2  FLAC
DYEAR=1900
DGENRE=
TTITLE0=Dialogue And Slates
TTITLE1=Dialogue And Slates
TTITLE2=Dialogue And Slates
TTITLE3=Dialogue And Slates
TTITLE4=Dialogue And Slates
TTITLE5=Dialogue And Slates
TTITLE6=Dialogue And Slates
TTITLE7=I've Got A Feeling 2.41
TTITLE8=Tuning
TTITLE9=Slate
TTITLE10=I've Got A Feeling 2.42
TTITLE11=I've Got A Feeling x.xx
TTITLE12=I've Got A Feeling 2.43
TTITLE13=I've Got A Feeling 2.44
TTITLE14=I've Got A Feeling 2.45
TTITLE15=I've Got A Feeling 2.46
TTITLE16=I've Got A Feeling 2.47
TTITLE17=I've Got A Feeling 2.48
TTITLE18=Sun King - Don't Let Me Down 2.49
TTITLE19=Don't Let Me Down 2.50
TTITLE20=Don't Let Me Down 2.51
TTITLE21=Sun King - Don't Let Me Down 2.52
TTITLE22=Don't Let Me Down 2.53
TTITLE23=Don't Let Me Down 2.54
TTITLE24=Improvisation 2.55
TTITLE25=Unknown 2.56
TTITLE26=Don't Let Me Down 2.57
TTITLE27=Don't Let Me Down 2.58
TTITLE28=Well, All Right 2.59
TTITLE29=Well, All Right 2.60
TTITLE30=Unknown 2.61
TTITLE31=All Things Must Pass 2.62
TTITLE32=Two Of Us 2.63
TTITLE33=We're Goin' Home 2.64
TTITLE34=Two Of Us 2.65
TTITLE35=Two Of Us 2.66
TTITLE36=Two Of Us 2.67
TTITLE37=Two Of Us 2.68
TTITLE38=Two Of Us 2.69
TTITLE39=Two Of Us 2.70
TTITLE40=Two Of Us 2.71
TTITLE41=It's Good To See The Folks Back Home 2.72
TTITLE42=Two Of Us 2.73
EXTD=
EXTT0=
EXTT1=
EXTT2=
EXTT3=
EXTT4=
EXTT5=
EXTT6=
EXTT7=
EXTT8=
EXTT9=
EXTT10=
EXTT11=
EXTT12=
EXTT13=
EXTT14=
EXTT15=
EXTT16=
EXTT17=
EXTT18=
EXTT19=
EXTT20=
EXTT21=
EXTT22=
EXTT23=
EXTT24=
EXTT25=
EXTT26=
EXTT27=
EXTT28=
EXTT29=
EXTT30=
EXTT31=
EXTT32=
EXTT33=
EXTT34=
EXTT35=
EXTT36=
EXTT37=
EXTT38=
EXTT39=
EXTT40=
EXTT41=
EXTT42=
PLAYORDER=
